# xmcd CD database file
#
# Track frame offsets:
#	150
#	32258
#	58537
#	83342
#	106016
#	135101
#	152727
#	172062
#	190275
#	212889
#
# Disc length: 3041 seconds
#
# Revision: 0
# Processed by: cddbd v1.4PL0 Copyright (c) Steve Scherf et al.
# Submitted via: CDex 1.50
#
DISCID=710bdf0a
DTITLE=Mark Braud - Shake It and Break It
DYEAR=2002
DGENRE=Jazz
TTITLE0=Fidgety Feet
TTITLE1=Way Down Yonder in New Orleans
TTITLE2=Careless Love
TTITLE3=Shake It and Break It
TTITLE4=Bill Bailey
TTITLE5=Winin' Boy Blues
TTITLE6=Floatin Down the Old Green River
TTITLE7=Four or Five Times
TTITLE8=The Sheik of Arabi
TTITLE9=China Boy
EXTD=YEAR: 2002
EXTT0=
EXTT1=
EXTT2=
EXTT3=
EXTT4=
EXTT5=
EXTT6=
EXTT7=
EXTT8=
EXTT9=
PLAYORDER=
